<?xml version="1.0" standalone="no"?> <!DOCTYPE svg PUBLIC "-//W3C//DTD SVG 1.0//EN" "http://www.w3.org/TR/2001/REC-SVG-20010904/DTD/svg10.dtd" > <svg xmlns="http://www.w3.org/2000/svg" width="100%" height="100%">
<defs >
<font horiz-adv-x="0" ><font-face
    font-family="NHL Colorado"
    units-per-em="1000"
    panose-1="0 0 4 0 0 0 0 0 0 0"
    ascent="800"
    descent="-200"
    alphabetic="0" />
<missing-glyph horiz-adv-x="500" d="M63 0V800H438V0H63ZM125 63H375V738H125V63Z" />
<glyph unicode=" " glyph-name="space" horiz-adv-x="500" />
<glyph unicode="0" glyph-name="zero" horiz-adv-x="482" d="M205 103Q172 103 148 189T124 399Q124 522 148 609T205 696Q239 696 262 609T286 399Q286 276 263 190T205 103ZM205 798L52 800L105 748V748Q57 695 29 604Q0 510 0 399Q0 234 60 117T205 0Q290 0
350 117T410 399Q410 564 350 681T205 798Z" />
<glyph unicode="1" glyph-name="one" horiz-adv-x="253" d="M0 800L44 757V0H170V800H0Z" />
<glyph unicode="2" glyph-name="two" horiz-adv-x="415" d="M182 795L161 799H155L149 800H130L125 799H119L101 796L95 794L89 793L67 786L61 783L55 781L34 770L29 766L24 764L0 744L51 656L56 661L58 663L61 666L67 670L69 673L73 674L79 678L82 681L85 682L88
684L92 685L95 688L99 689L106 692L119 695H123L127 696H132L137 695H140L145 694H150L154 692L162 690L170 687L174 684L178 682L182 679L185 676L188 673L191 671L195 668L198 664L201 661L202 657L205 654L213 638L214 633L215 629L217 619V604V599V594L215
589L214 585L213 580L201 553L99 407L55 312L32 231L20 158L19 0H348V146L306 104H144V132L155 213L170 264L197 325L290 459L313 498L320 512L323 519L334 554L340 592V629L339 637L332 668L323 689L312 710L285 743L277 751L242 776L239 777L235 779L233 780L225
784L187 795H182Z" />
<glyph unicode="3" glyph-name="three" horiz-adv-x="436" d="M65 522Q247 493 247 384Q247 317 176 244T0 128V0Q171 58 275 171Q372 278 372 388Q372 516 240 580L366 800H28V696H164L65 522Z" />
<glyph unicode="4" glyph-name="four" horiz-adv-x="571" d="M280 574V290H145L228 800H59L92 755L0 185H280V0H406V185H435L514 290H406V635L280 574Z" />
<glyph unicode="5" glyph-name="five" horiz-adv-x="413" d="M43 463Q129 471 178 414Q220 363 220 283Q220 212 186 160Q150 105 93 105Q69 105 43 115V8Q80 0 114 0Q226 0 289 86Q345 162 345 275Q345 378 299 456Q249 541 167 556V696H329V800H0L43 757V463Z" />
<glyph unicode="6" glyph-name="six" horiz-adv-x="454" d="M257 694L260 695H264L268 696H338V800H105L138 767H137L128 763L125 760L120 758L109 749L106 747L102 744L95 737L93 733L89 729L83 722L82 718L78 714L66 693L62 689L56 678L51 666L48 661L47 655L44
649L19 567L1 436L0 275L8 190L27 124L62 66L64 63L67 59L76 51L79 47L84 41L95 34L98 31L101 29L104 26L134 12L138 10L142 8L149 7L154 5L161 3H166L174 1H178L182 0H208L213 1H217L242 7L273 20L282 25L285 27L301 39L308 45L312 48L322 58L328 66L332 69L337
77L342 85L344 89L347 94L349 98L376 174L377 181L381 195L387 237V244L388 251V294L386 308V315L376 372L363 413L360 420L356 429L332 473L309 498L297 509L288 514L283 518Q280 519 278 521L273 523L264 528L244 536L238 537L233 539L210 542H205L199 543H188L175
542H169L162 540L143 536H142V537L153 582L170 623L187 653L190 656L192 658L204 671L210 674L213 677L215 679L218 680L221 682L225 684L228 685L230 687L234 689L253 694H257ZM206 436L210 434L213 433L219 428L225 423V420H226L229 415L233 410L235 406L241
396L249 371L261 305V236L260 227V221L253 183L241 148L230 128L228 125L225 122L222 118L217 113L215 112L213 111L212 110L210 108L207 107L203 105H201L198 104H193L190 105H187L185 106L182 107L179 109L177 111L171 115L170 117L166 119L157 133L155 137L154
139L147 154L146 158L143 164L142 167L140 171L137 186L136 192L134 199L129 231V238L127 258L128 401L130 404L133 406L136 408L138 411L140 414L143 416L146 419L149 420L152 423L163 431L166 432L170 434L176 436L180 437H183L185 439H194L206 436Z" />
<glyph unicode="7" glyph-name="seven" horiz-adv-x="504" d="M120 695H289L141 0H270L440 800H0L120 644V695Z" />
<glyph unicode="8" glyph-name="eight" horiz-adv-x="462" d="M293 775L251 792L210 800H42L79 764L62 748L60 745L48 732L45 726L40 720L24 685L17 661L15 648L13 642L12 636V629L10 617V593L11 586V580L14 561L16 554L17 548L24 523L31 509L32 505L37 494L40
490L44 483L54 468L60 463L63 459L67 455H66L60 450L55 443L52 440L46 431L44 427L37 418L34 410L33 407L31 404L20 376L18 368L15 361L1 289V281L0 274V236L1 229V221L4 192L18 139L27 113L30 109L34 99L45 80L61 58L76 43L111 19L116 17L121 14L142 7L152 5L157
3L162 2H167L173 1H179L183 0H209L219 2H224L239 5L244 7L249 8L253 9L258 10L290 26L293 29L297 32L300 34L304 36L307 40L311 42L313 45L317 48L320 51L323 55L332 64L334 68L337 71L340 74L343 78L344 82L347 85L369 135L383 190L388 230V246V253L383 317L367
380L363 391L347 423L344 427L341 432L322 455H321L326 460L328 464L332 467L350 493L363 523L374 559L376 578V585L377 591V617L376 622V629L375 641L363 685L355 706L341 731L337 734L334 739L331 744L306 766L302 768L293 775ZM188 695H191L194 696L197 695H202L208
693L210 691L213 690L216 689L218 687L221 685L225 682L226 679L230 675L239 661L241 657L244 652V647L248 637L252 614V595L248 570L241 547L238 542L233 535L231 531L220 520L216 517L214 516L212 514L201 511H197L194 510L192 511H185L182 512H180L172 516L170
519L167 520L166 522L165 523L161 526L159 529L155 533L154 536L153 538L146 550L145 553L144 554L140 567V570L138 580V582L137 586V593L136 599V606L137 613V618L138 625L139 631L140 638L144 650L152 666L154 669L155 673L158 675L160 678L169 687L176 691L179
692L182 694H185L188 695ZM210 404L219 399L228 391L230 386L234 381L242 367L253 337L256 323L257 318L258 314V309L261 295V290L262 286V281L263 277L260 209L253 174L234 131L229 125L218 113L213 110L210 108L199 104H188L186 105H185L183 106L182 107H180L174
111H171L160 123L157 127L154 132L148 142L138 167L137 172L135 177L134 182L132 187L126 218V224V229V234L125 240V277L130 318L142 358L155 384L158 387L160 390L163 392L165 396L167 398L170 400L173 403L177 404L178 406L181 407L182 408H185H186H188L190 409H198L201
408H202L208 406L210 404Z" />
<glyph unicode="9" glyph-name="nine" horiz-adv-x="465" d="M296 764L287 771L283 773L280 776L257 787L253 788L246 792L218 798H213L203 800H59L93 766L91 765L74 750L70 745L66 742L58 733L36 699L34 693L23 667L9 619L8 613L6 606L1 564V556L0 550V507L2
493V486L13 420L31 372L47 341L50 336L56 327L82 299L87 296L90 293L95 289L100 286L114 277L118 275L123 273L150 263L177 258H182H187H199H206H212L231 261L244 265H245V264L241 242L220 180L213 167L197 144L184 130L181 128L179 126L176 124L172 122L169 119L165
117L163 115H159L152 111L144 109L140 107L133 105H127L125 104H101L96 105H93L61 112L57 115V8L89 2H94L99 1H105L109 0H150L169 2H174L214 12L246 27L278 50L299 71L302 75L304 79L307 83L310 85L312 89L315 93L317 96L342 147L360 203L369 239L376 283L388 485L378
612L371 644L355 684L340 714L323 737L320 740L317 744L303 758L299 760L296 764ZM210 689L216 685L218 683L221 681L230 667L232 663L234 661L240 646L241 642L244 636L245 633L247 629L258 570L259 400L256 397L255 394L247 387L244 385L241 382L239 380L236
377L224 370L221 369L218 367L215 366L212 364L204 363H193L178 366L169 373L163 379L157 386L154 391L153 396L147 404L136 439L125 506V554L130 590V596L132 601L137 626L150 661L153 664L157 672L160 675L165 681L169 685L170 687L172 688L174 689L176 690L178
692L180 693L182 694L184 695H186L188 696H194L197 695H199L202 694L204 693L207 692L209 691L210 689Z" />
<glyph unicode="A" glyph-name="A" horiz-adv-x="472" d="M203 622L246 287H156L195 621L203 622ZM405 0L276 800H121L0 0H117L141 174L260 175L285 0H405Z" />
<glyph unicode="B" glyph-name="B" horiz-adv-x="436" d="M175 799L0 800V0L193 1L249 11L272 19L282 26L302 37L315 51L331 71L337 80L343 96L353 127L358 149L363 236L351 299L340 333L323 362L299 388L292 394L286 399L270 409L288 424L317 457L333 490L348
532L352 562L350 633L339 681L322 720L295 753L261 776L251 782L212 795L175 799ZM196 675L200 673L204 670L212 662L218 655L225 638L228 621L231 554L226 526L224 518L218 503L204 485L195 477L184 470L178 468L172 467L164 466L116 467L115 685L162 684L178
682L186 679L192 678L196 675ZM164 350L181 349L201 341L211 335L219 327L222 323L236 290L240 268L241 219L237 183L234 168L224 145L216 133L206 127L201 123L183 117H175L167 115L116 116V351L164 350Z" />
<glyph unicode="C" glyph-name="C" horiz-adv-x="417" d="M223 795L200 799L160 800L119 792L91 782L67 767L32 732L23 716L16 698L3 653L0 615L9 150L32 80L52 48L64 38L90 19L120 8L137 3L172 0L181 1L214 4L238 9L260 17L280 29L307 55L313 63L332 96L345 141L353
192L351 291H235L236 179L232 155L228 137L220 125L211 117L209 113H206L202 110L196 109L184 106H180L160 109L151 113L141 118L137 121L131 131L129 136L122 154L120 170V177V186L118 646L124 663L132 676L135 679L136 680L139 684L142 685L147 688L150 690L156
691L161 692L167 693L174 695L185 693L192 692L200 689L209 682L213 678L216 674L223 664L229 646L232 623L233 531H350L345 650L341 669L334 694L324 715L312 736L291 759L268 778L245 787L223 795Z" />
<glyph unicode="D" glyph-name="D" horiz-adv-x="439" d="M187 799L0 800V0H174L225 4L256 11L288 27L311 47L322 59L327 66L329 74L335 80L349 114L361 200L357 647L349 676L337 713L314 746L290 767L270 782L253 788L216 796L187 799ZM211 664L216 660L219 656L224
651L228 647L235 626L237 616L238 597L239 176L232 149L229 143L224 137L216 130L211 125L202 122L198 121L191 119L183 118L179 119H117V683L154 682L175 680L191 677L206 668L211 664Z" />
<glyph unicode="E" glyph-name="E" horiz-adv-x="369" d="M308 800L0 799V0L308 1L309 121L118 120L117 359L254 360V476L117 475V683L309 684L308 800Z" />
<glyph unicode="F" glyph-name="F" horiz-adv-x="362" d="M307 800H0V0H118V360H255V476H118V685H307V800Z" />
<glyph unicode="G" glyph-name="G" horiz-adv-x="414" d="M241 790L217 797L194 800H161L126 794L101 786L66 767L60 761L33 732L24 717L15 698L3 652L0 616L1 169L7 133L17 95L26 76L46 47L61 30L71 24L80 19L90 12L122 3L144 0H172L185 3L201 7L213 12L220 17L237
30L256 55L264 69L287 15H340V403H163V306H233V177L228 154L226 143L220 130L216 123L209 118L203 112H201L191 108L179 105L161 107L156 108L145 112L137 118L133 122L126 130L123 136L118 154L115 169L118 645L123 663L130 675L134 678L140 684L143 685L147 688L149
689L156 691L161 693H185L191 691L197 689L201 688L209 682L213 678L223 663L226 657L227 651L228 645L233 621V533H340L338 652L331 687L313 732L305 743L285 765L262 782L241 790Z" />
<glyph unicode="H" glyph-name="H" horiz-adv-x="434" d="M234 800L235 475L118 474L117 800H0V0H117L118 359H235L234 0H353V800H234Z" />
<glyph unicode="I" glyph-name="I" horiz-adv-x="201" d="M119 0L0 1V800L119 799V0Z" />
<glyph unicode="J" glyph-name="J" horiz-adv-x="290" d="M71 140L61 131L54 128L44 123L37 122L17 121L11 124H5H2L0 0H67L103 5L121 11L140 19L149 28L159 37L172 53L175 58L191 95L193 103L194 111L198 127L206 191L209 800H90L87 169L79 149L71 140Z" />
<glyph unicode="K" glyph-name="K" horiz-adv-x="450" d="M369 799H253L119 476V800H1L0 0H118V312L162 403L261 0H384L238 529L369 799Z" />
<glyph unicode="L" glyph-name="L" horiz-adv-x="354" d="M0 800V1L299 0V116L116 117V800H0Z" />
<glyph unicode="M" glyph-name="M" horiz-adv-x="568" d="M326 800L247 296L156 799L0 798L6 0H114L110 591L217 1H275L377 585L381 3L490 2L484 800H326Z" />
<glyph unicode="N" glyph-name="N" horiz-adv-x="457" d="M266 799L265 293L105 800H0L1 1H110V479L266 0H376L375 799H266Z" />
<glyph unicode="O" glyph-name="O" horiz-adv-x="427" d="M235 792L202 798L161 800L127 795L102 788L93 782L61 763L34 733L23 718L17 699L3 654L0 617L4 152L10 123L26 83L38 63L48 50L66 34L92 17L115 8L131 4L166 0L175 1L208 4L232 8L254 16L275 28L292 44L308
62L327 94L341 140L349 190L345 649L335 692L325 714L313 734L292 758L275 772L258 782L235 792ZM192 691L202 688L210 682L214 677L217 673L224 664L229 645L232 631V622V615L228 154L223 137L216 125L207 116L204 113H201L192 108L179 106H175L155 109L146 113L137
118L132 122L126 131L124 136L117 155L116 170L115 178L116 186L118 646L125 663L132 676L135 680L137 681L140 684L143 686L147 689L151 690L157 691L162 692L168 693L175 695L186 694L192 691Z" />
<glyph unicode="P" glyph-name="P" horiz-adv-x="417" d="M193 799L1 800L0 0H117L118 326L215 325L223 327L231 328L237 329L261 338L266 341L291 360L307 377L327 406L341 440L355 504L359 553L347 683L330 725L317 743L310 751L299 763L292 767L287 771L278
778L268 784L250 790L232 795L193 799ZM195 680L208 674L215 669L223 661L230 648L235 618L238 523L232 489L224 468L221 463L216 455L207 450L190 443L176 441H119L118 684H180L195 680Z" />
<glyph unicode="Q" glyph-name="Q" horiz-adv-x="455" d="M246 787L225 795L190 800H161L144 797L136 795L126 794L100 785L68 766L33 731L24 715L9 677L4 642L0 614L8 141L23 97L32 77L53 47L66 35L71 32L79 25L123 5L136 3L158 0L195 2L230 10L253 20L261 27L275
8L283 -4L305 -20L320 -25L333 -32L363 -35L383 -34V84H368H359L355 88L351 89H349L342 97L339 104L336 107L343 126L351 173L349 631L338 685L334 692V699L323 721L299 752L274 772L246 787ZM214 677L219 673L221 668L227 657L228 651L233 622L219 124L216 121L215
119L207 114L203 111L194 108L183 106H164L160 108L149 111L137 121L130 130L126 137L120 162L119 169L118 178L117 637L124 664L130 672L131 674L134 678L137 679L140 683L143 686L152 689L158 690L162 693L168 692L173 695L186 692L192 690H198L202 687L211 682L214
677Z" />
<glyph unicode="R" glyph-name="R" horiz-adv-x="442" d="M193 800H0V0H120V337H174L248 0H369L283 373L304 389L320 409L337 440L350 486L357 542V594L343 690L336 708L320 738L313 747L295 764L277 778L271 780L267 783L231 794L193 800ZM193 680L208 675L222
660L225 654L231 639L236 610L238 546L234 512L229 493L221 476L218 471L213 468L205 461L197 457L180 454H173L164 453H120V685L179 683L193 680Z" />
<glyph unicode="S" glyph-name="S" horiz-adv-x="431" d="M173 799L147 794L110 779L76 757L61 743L44 722L37 711L25 686L15 653L11 617L15 567L18 550L35 505L51 476L223 273L236 252L248 223L252 207L254 198L252 176L250 161L247 154L238 140L233 134L220
125L212 121L208 119L202 118L198 116H194L190 115H184L162 119L151 123L143 130L139 134L135 137L129 147L122 158L115 184L110 219V230L0 214L8 153L11 143L12 133L21 108L37 79L58 53L71 42L103 19L139 7L162 1L197 0L205 1H212L220 3L250 11L279 25L304 43L311
50L331 75L347 101L359 141L363 172V223L354 272L344 299L334 318L318 344L189 489L155 532L137 564L126 599L123 617V625L126 645L130 656L136 664L144 674L148 677L153 681L157 684H159L164 686L176 689H184L202 686L208 685L218 679L226 671L233 661L237 649L244
623L247 593L358 610L356 623L347 674L326 721L299 757L281 771L252 788L243 792L222 797L209 799L187 800L173 799Z" />
<glyph unicode="T" glyph-name="T" horiz-adv-x="425" d="M363 684V800H0V684L123 685L124 0H241L240 685L363 684Z" />
<glyph unicode="U" glyph-name="U" horiz-adv-x="439" d="M239 799L232 144L223 135L220 130L216 128L211 124L207 122L193 118L189 119L185 117L180 119L176 118L158 123L153 124L152 127L148 130L144 131L143 136L138 138L137 143L134 146L132 150L130 153L129
158L126 164L122 177L123 183L122 187L119 799H0L3 217L13 134L19 117L20 107L31 82L54 49L60 46L79 29L100 17L123 8L139 4L173 0H183L218 2L243 8L265 17L304 44L327 74L343 108L348 120L357 162L360 204L357 800L239 799Z" />
<glyph unicode="V" glyph-name="V" horiz-adv-x="464" d="M281 800L202 239L115 800H0L141 0L263 1L396 800H281Z" />
<glyph unicode="W" glyph-name="W" horiz-adv-x="651" d="M471 800L413 262L342 800L241 799L172 264L113 799H0L121 0L219 1L292 520L364 0L463 1L583 799L471 800Z" />
<glyph unicode="X" glyph-name="X" horiz-adv-x="474" d="M396 799L275 800L200 565L195 564L123 799H0L139 407L0 1L121 0L205 262H209L286 1H408L263 416L396 799Z" />
<glyph unicode="Y" glyph-name="Y" horiz-adv-x="456" d="M275 800L203 481H196L120 800H0L141 317V0H258V333L395 800H275Z" />
<glyph unicode="Z" glyph-name="Z" horiz-adv-x="407" d="M339 800H19V677H212L0 124V0H339V124H125L339 685V800Z" />
<glyph unicode="a" glyph-name="a" horiz-adv-x="472" d="M203 622L246 287H156L195 621L203 622ZM405 0L276 800H121L0 0H117L141 174L260 175L285 0H405Z" />
<glyph unicode="b" glyph-name="b" horiz-adv-x="436" d="M175 799L0 800V0L193 1L249 11L272 19L282 26L302 37L315 51L331 71L337 80L343 96L353 127L358 149L363 236L351 299L340 333L323 362L299 388L292 394L286 399L270 409L288 424L317 457L333 490L348
532L352 562L350 633L339 681L322 720L295 753L261 776L251 782L212 795L175 799ZM196 675L200 673L204 670L212 662L218 655L225 638L228 621L231 554L226 526L224 518L218 503L204 485L195 477L184 470L178 468L172 467L164 466L116 467L115 685L162 684L178
682L186 679L192 678L196 675ZM164 350L181 349L201 341L211 335L219 327L222 323L236 290L240 268L241 219L237 183L234 168L224 145L216 133L206 127L201 123L183 117H175L167 115L116 116V351L164 350Z" />
<glyph unicode="c" glyph-name="c" horiz-adv-x="417" d="M223 795L200 799L160 800L119 792L91 782L67 767L32 732L23 716L16 698L3 653L0 615L9 150L32 80L52 48L64 38L90 19L120 8L137 3L172 0L181 1L214 4L238 9L260 17L280 29L307 55L313 63L332 96L345 141L353
192L351 291H235L236 179L232 155L228 137L220 125L211 117L209 113H206L202 110L196 109L184 106H180L160 109L151 113L141 118L137 121L131 131L129 136L122 154L120 170V177V186L118 646L124 663L132 676L135 679L136 680L139 684L142 685L147 688L150 690L156
691L161 692L167 693L174 695L185 693L192 692L200 689L209 682L213 678L216 674L223 664L229 646L232 623L233 531H350L345 650L341 669L334 694L324 715L312 736L291 759L268 778L245 787L223 795Z" />
<glyph unicode="d" glyph-name="d" horiz-adv-x="439" d="M187 799L0 800V0H174L225 4L256 11L288 27L311 47L322 59L327 66L329 74L335 80L349 114L361 200L357 647L349 676L337 713L314 746L290 767L270 782L253 788L216 796L187 799ZM211 664L216 660L219 656L224
651L228 647L235 626L237 616L238 597L239 176L232 149L229 143L224 137L216 130L211 125L202 122L198 121L191 119L183 118L179 119H117V683L154 682L175 680L191 677L206 668L211 664Z" />
<glyph unicode="e" glyph-name="e" horiz-adv-x="369" d="M308 800L0 799V0L308 1L309 121L118 120L117 359L254 360V476L117 475V683L309 684L308 800Z" />
<glyph unicode="f" glyph-name="f" horiz-adv-x="362" d="M307 800H0V0H118V360H255V476H118V685H307V800Z" />
<glyph unicode="g" glyph-name="g" horiz-adv-x="414" d="M241 790L217 797L194 800H161L126 794L101 786L66 767L60 761L33 732L24 717L15 698L3 652L0 616L1 169L7 133L17 95L26 76L46 47L61 30L71 24L80 19L90 12L122 3L144 0H172L185 3L201 7L213 12L220 17L237
30L256 55L264 69L287 15H340V403H163V306H233V177L228 154L226 143L220 130L216 123L209 118L203 112H201L191 108L179 105L161 107L156 108L145 112L137 118L133 122L126 130L123 136L118 154L115 169L118 645L123 663L130 675L134 678L140 684L143 685L147 688L149
689L156 691L161 693H185L191 691L197 689L201 688L209 682L213 678L223 663L226 657L227 651L228 645L233 621V533H340L338 652L331 687L313 732L305 743L285 765L262 782L241 790Z" />
<glyph unicode="h" glyph-name="h" horiz-adv-x="434" d="M234 800L235 475L118 474L117 800H0V0H117L118 359H235L234 0H353V800H234Z" />
<glyph unicode="i" glyph-name="i" horiz-adv-x="201" d="M119 0L0 1V800L119 799V0Z" />
<glyph unicode="j" glyph-name="j" horiz-adv-x="290" d="M71 140L61 131L54 128L44 123L37 122L17 121L11 124H5H2L0 0H67L103 5L121 11L140 19L149 28L159 37L172 53L175 58L191 95L193 103L194 111L198 127L206 191L209 800H90L87 169L79 149L71 140Z" />
<glyph unicode="k" glyph-name="k" horiz-adv-x="450" d="M369 799H253L119 476V800H1L0 0H118V312L162 403L261 0H384L238 529L369 799Z" />
<glyph unicode="l" glyph-name="l" horiz-adv-x="354" d="M0 800V1L299 0V116L116 117V800H0Z" />
<glyph unicode="m" glyph-name="m" horiz-adv-x="568" d="M326 800L247 296L156 799L0 798L6 0H114L110 591L217 1H275L377 585L381 3L490 2L484 800H326Z" />
<glyph unicode="n" glyph-name="n" horiz-adv-x="457" d="M266 799L265 293L105 800H0L1 1H110V479L266 0H376L375 799H266Z" />
<glyph unicode="o" glyph-name="o" horiz-adv-x="427" d="M235 792L202 798L161 800L127 795L102 788L93 782L61 763L34 733L23 718L17 699L3 654L0 617L4 152L10 123L26 83L38 63L48 50L66 34L92 17L115 8L131 4L166 0L175 1L208 4L232 8L254 16L275 28L292 44L308
62L327 94L341 140L349 190L345 649L335 692L325 714L313 734L292 758L275 772L258 782L235 792ZM192 691L202 688L210 682L214 677L217 673L224 664L229 645L232 631V622V615L228 154L223 137L216 125L207 116L204 113H201L192 108L179 106H175L155 109L146 113L137
118L132 122L126 131L124 136L117 155L116 170L115 178L116 186L118 646L125 663L132 676L135 680L137 681L140 684L143 686L147 689L151 690L157 691L162 692L168 693L175 695L186 694L192 691Z" />
<glyph unicode="p" glyph-name="p" horiz-adv-x="417" d="M193 799L1 800L0 0H117L118 326L215 325L223 327L231 328L237 329L261 338L266 341L291 360L307 377L327 406L341 440L355 504L359 553L347 683L330 725L317 743L310 751L299 763L292 767L287 771L278
778L268 784L250 790L232 795L193 799ZM195 680L208 674L215 669L223 661L230 648L235 618L238 523L232 489L224 468L221 463L216 455L207 450L190 443L176 441H119L118 684H180L195 680Z" />
<glyph unicode="q" glyph-name="q" horiz-adv-x="455" d="M246 787L225 795L190 800H161L144 797L136 795L126 794L100 785L68 766L33 731L24 715L9 677L4 642L0 614L8 141L23 97L32 77L53 47L66 35L71 32L79 25L123 5L136 3L158 0L195 2L230 10L253 20L261 27L275
8L283 -4L305 -20L320 -25L333 -32L363 -35L383 -34V84H368H359L355 88L351 89H349L342 97L339 104L336 107L343 126L351 173L349 631L338 685L334 692V699L323 721L299 752L274 772L246 787ZM214 677L219 673L221 668L227 657L228 651L233 622L219 124L216 121L215
119L207 114L203 111L194 108L183 106H164L160 108L149 111L137 121L130 130L126 137L120 162L119 169L118 178L117 637L124 664L130 672L131 674L134 678L137 679L140 683L143 686L152 689L158 690L162 693L168 692L173 695L186 692L192 690H198L202 687L211 682L214
677Z" />
<glyph unicode="r" glyph-name="r" horiz-adv-x="442" d="M193 800H0V0H120V337H174L248 0H369L283 373L304 389L320 409L337 440L350 486L357 542V594L343 690L336 708L320 738L313 747L295 764L277 778L271 780L267 783L231 794L193 800ZM193 680L208 675L222
660L225 654L231 639L236 610L238 546L234 512L229 493L221 476L218 471L213 468L205 461L197 457L180 454H173L164 453H120V685L179 683L193 680Z" />
<glyph unicode="s" glyph-name="s" horiz-adv-x="431" d="M173 799L147 794L110 779L76 757L61 743L44 722L37 711L25 686L15 653L11 617L15 567L18 550L35 505L51 476L223 273L236 252L248 223L252 207L254 198L252 176L250 161L247 154L238 140L233 134L220
125L212 121L208 119L202 118L198 116H194L190 115H184L162 119L151 123L143 130L139 134L135 137L129 147L122 158L115 184L110 219V230L0 214L8 153L11 143L12 133L21 108L37 79L58 53L71 42L103 19L139 7L162 1L197 0L205 1H212L220 3L250 11L279 25L304 43L311
50L331 75L347 101L359 141L363 172V223L354 272L344 299L334 318L318 344L189 489L155 532L137 564L126 599L123 617V625L126 645L130 656L136 664L144 674L148 677L153 681L157 684H159L164 686L176 689H184L202 686L208 685L218 679L226 671L233 661L237 649L244
623L247 593L358 610L356 623L347 674L326 721L299 757L281 771L252 788L243 792L222 797L209 799L187 800L173 799Z" />
<glyph unicode="t" glyph-name="t" horiz-adv-x="425" d="M363 684V800H0V684L123 685L124 0H241L240 685L363 684Z" />
<glyph unicode="u" glyph-name="u" horiz-adv-x="439" d="M239 799L232 144L223 135L220 130L216 128L211 124L207 122L193 118L189 119L185 117L180 119L176 118L158 123L153 124L152 127L148 130L144 131L143 136L138 138L137 143L134 146L132 150L130 153L129
158L126 164L122 177L123 183L122 187L119 799H0L3 217L13 134L19 117L20 107L31 82L54 49L60 46L79 29L100 17L123 8L139 4L173 0H183L218 2L243 8L265 17L304 44L327 74L343 108L348 120L357 162L360 204L357 800L239 799Z" />
<glyph unicode="v" glyph-name="v" horiz-adv-x="464" d="M281 800L202 239L115 800H0L141 0L263 1L396 800H281Z" />
<glyph unicode="w" glyph-name="w" horiz-adv-x="651" d="M471 800L413 262L342 800L241 799L172 264L113 799H0L121 0L219 1L292 520L364 0L463 1L583 799L471 800Z" />
<glyph unicode="x" glyph-name="x" horiz-adv-x="474" d="M396 799L275 800L200 565L195 564L123 799H0L139 407L0 1L121 0L205 262H209L286 1H408L263 416L396 799Z" />
<glyph unicode="y" glyph-name="y" horiz-adv-x="456" d="M275 800L203 481H196L120 800H0L141 317V0H258V333L395 800H275Z" />
<glyph unicode="z" glyph-name="z" horiz-adv-x="407" d="M339 800H19V677H212L0 124V0H339V124H125L339 685V800Z" />
</font>
</defs>
</svg>
